<svg width="128" height="128" viewBox="0 0 128 128" xmlns="http://www.w3.org/2000/svg">
  <defs>
    <linearGradient id="bgGradient" x1="0%" y1="0%" x2="100%" y2="100%">
      <stop offset="0%" style="stop-color:#2C3E50;stop-opacity:1" />
      <stop offset="100%" style="stop-color:#3498DB;stop-opacity:1" />
    </linearGradient>
    <linearGradient id="iconGradient" x1="0%" y1="0%" x2="100%" y2="100%">
      <stop offset="0%" style="stop-color:#FFFFFF;stop-opacity:1" />
      <stop offset="100%" style="stop-color:#ECF0F1;stop-opacity:1" />
    </linearGradient>
  </defs>
  
  <!-- Background Circle -->
  <circle cx="64" cy="64" r="60" fill="url(#bgGradient)" stroke="#2C3E50" stroke-width="2"/>
  
  <!-- AWS Cloud Icon -->
  <path d="M35 45 C30 45, 28 50, 32 52 L48 60 C50 61, 52 59, 50 57 L42 50 C40 48, 42 45, 45 45 Z" fill="url(#iconGradient)"/>
  <path d="M50 42 C45 42, 43 47, 47 49 L63 57 C65 58, 67 56, 65 54 L57 47 C55 45, 57 42, 60 42 Z" fill="url(#iconGradient)"/>
  <path d="M65 45 C60 45, 58 50, 62 52 L78 60 C80 61, 82 59, 80 57 L72 50 C70 48, 72 45, 75 45 Z" fill="url(#iconGradient)"/>
  
  <!-- Message/SMS Icon -->
  <rect x="25" y="65" width="78" height="45" rx="8" fill="url(#iconGradient)" stroke="#2C3E50" stroke-width="1"/>
  <rect x="30" y="70" width="68" height="35" rx="4" fill="#2C3E50" opacity="0.1"/>
  
  <!-- Message Lines -->
  <line x1="35" y1="78" x2="85" y2="78" stroke="#2C3E50" stroke-width="2" stroke-linecap="round"/>
  <line x1="35" y1="85" x2="75" y2="85" stroke="#2C3E50" stroke-width="2" stroke-linecap="round"/>
  <line x1="35" y1="92" x2="65" y2="92" stroke="#2C3E50" stroke-width="2" stroke-linecap="round"/>
  
  <!-- Send Arrow -->
  <path d="M90 85 L100 90 L90 95 M100 90 L85 90" stroke="#E74C3C" stroke-width="2" fill="none" stroke-linecap="round" stroke-linejoin="round"/>
  
  <!-- AWS Text -->
  <text x="64" y="25" text-anchor="middle" fill="url(#iconGradient)" font-family="Arial, sans-serif" font-size="12" font-weight="bold">AWS</text>
  <text x="64" y="122" text-anchor="middle" fill="url(#iconGradient)" font-family="Arial, sans-serif" font-size="10">EUM</text>
</svg>