<?xml version="1.0" encoding="UTF-8"?>
<svg width="48" height="48" viewBox="0 0 48 48" xmlns="http://www.w3.org/2000/svg">
  <!-- Background circle -->
  <circle cx="24" cy="24" r="23" fill="#4A90E2" stroke="#2E5B8A" stroke-width="2"/>
  
  <!-- Folder icon -->
  <path d="M12 16 L20 16 L22 18 L36 18 C37.1 18 38 18.9 38 20 L38 32 C38 33.1 37.1 34 36 34 L12 34 C10.9 34 10 33.1 10 32 L10 18 C10 16.9 10.9 16 12 16 Z" 
        fill="#FFE082" stroke="#FFA000" stroke-width="1"/>
  
  <!-- Search glass -->
  <circle cx="30" cy="22" r="3" fill="none" stroke="#FFF" stroke-width="2"/>
  <line x1="32.5" y1="24.5" x2="35" y2="27" stroke="#FFF" stroke-width="2" stroke-linecap="round"/>
  
  <!-- File lines -->
  <line x1="14" y1="24" x2="26" y2="24" stroke="#FFA000" stroke-width="1.5" stroke-linecap="round"/>
  <line x1="14" y1="27" x2="24" y2="27" stroke="#FFA000" stroke-width="1.5" stroke-linecap="round"/>
  <line x1="14" y1="30" x2="22" y2="30" stroke="#FFA000" stroke-width="1.5" stroke-linecap="round"/>
</svg>